#!OML:ASF H:\LiuWeirdWalks\Patient Classification 1\Patient 1\Session 1\male.ASF
:FULLY-SPECIFIED
:DEGREES
379
root 2.03249 16.8631 7.0195 -1.0741 5.41301 -8.98145
lowerback 14.0837 0.137411 -0.507387
upperback -0.7151 0.451747 3.98781
thorax -8.74182 0.348566 4.48623
lowerneck -23.1422 0.539692 5.44853
upperneck 26.1884 -0.434168 -2.78827
head 12.529 -0.0191726 -2.05981
rclavicle 6.32384e-015 -1.27222e-014
rhumerus -49.1709 -2.26554 -77.3817
rradius 40.6996
rwrist -11.889
rhand -17.4583 4.66152
rfingers 7.12502
rthumb 8.79307 -25.1353
lclavicle 6.32384e-015 -1.27222e-014
lhumerus -38.6616 -5.12669 83.2634
lradius 37.354
lwrist 5.15723
lhand -17.1322 -7.83164
lfingers 7.12502
lthumb 9.10781 21.9517
rfemur -12.5474 -15.5798 21.2282
rtibia 74.1821
rfoot -18.9869 -20.6407
rtoes -10.2865
lfemur -23.3502 6.18374 -16.2882
ltibia 59.3081
lfoot -23.3031 1.32155
ltoes -15.7996
380
root 2.03797 16.8867 7.14965 -0.874167 5.68151 -9.00733
lowerback 14.2051 0.133857 -0.559518
upperback -0.765237 0.446665 4.03873
thorax -8.8667 0.352679 4.57632
lowerneck -23.2712 0.45416 5.37734
upperneck 26.1163 -0.560424 -2.71436
head 12.5199 -0.0735129 -2.04069
rclavicle -2.03754e-015 -2.10712e-014
rhumerus -49.0749 -2.62076 -76.9425
rradius 41.3814
rwrist -12.7332
rhand -17.4901 4.47485
rfingers 7.12502
rthumb 8.76242 -25.3233
lclavicle -2.03754e-015 -2.10712e-014
lhumerus -37.9034 -5.7482 83.7151
lradius 37.4924
lwrist 4.96284
lhand -17.1111 -7.93593
lfingers 7.12502
lthumb 9.12812 21.8465
rfemur -12.669 -16.0073 21.046
rtibia 74.0466
rfoot -18.8826 -20.6805
rtoes -10.1513
lfemur -23.2932 6.39167 -16.0488
ltibia 59.5256
lfoot -22.9579 0.23718
ltoes -16.3647
381
root 2.04065 16.9081 7.27819 -0.670089 6.0066 -9.10542
lowerback 14.3146 0.111379 -0.553056
upperback -0.805119 0.427281 4.10508
thorax -8.9722 0.347246 4.65249
lowerneck -23.3981 0.358976 5.29737
upperneck 26.0128 -0.699026 -2.6327
head 12.4976 -0.13364 -2.01871
rclavicle 1.62755e-015 2.98177e-015
rhumerus -48.9328 -2.98788 -76.5219
rradius 42.0278
rwrist -13.3955
rhand -17.5938 4.2009
rfingers 7.12502
rthumb 8.66238 -25.6014
lclavicle 1.62755e-015 2.98177e-015
lhumerus -37.0833 -6.28996 84.0953
lradius 37.6039
lwrist 4.77545
lhand -17.1051 -7.95002
lfingers 7.12502
lthumb 9.13395 21.8322
rfemur -12.7987 -16.442 20.9662
rtibia 73.923
rfoot -18.7723 -20.7433
rtoes -10.0287
lfemur -23.3007 6.52097 -15.7004
ltibia 59.7905
lfoot -22.5833 -0.912695
ltoes -16.8867
382
root 2.04076 16.9267 7.4054 -0.455675 6.38707 -9.24373
lowerback 14.425 0.0706524 -0.519596
upperback -0.846599 0.389093 4.17796
thorax -9.07821 0.331743 4.72479
lowerneck -23.5244 0.267536 5.23752
upperneck 25.901 -0.836393 -2.56117
head 12.472 -0.192711 -2.00371
rclavicle -1.9717e-014 -4.9895e-014
rhumerus -48.7741 -3.33842 -76.1308
rradius 42.6599
rwrist -13.8445
rhand -17.7587 3.94363
rfingers 7.12502
rthumb 8.50319 -25.8652
lclavicle -1.9717e-014 -4.9895e-014
lhumerus -36.238 -6.76021 84.406
lradius 37.7118
lwrist 4.5984
lhand -17.0973 -7.93307
lfingers 7.12502
lthumb 9.14142 21.8488
rfemur -12.9478 -16.8827 20.9542
rtibia 73.8208
rfoot -18.6687 -20.8074
rtoes -9.92424
lfemur -23.3604 6.55444 -15.2835
ltibia 60.0792
lfoot -22.208 -2.09809
ltoes -17.3919
383
root 2.03931 16.9422 7.5319 -0.218282 6.81394 -9.37326
lowerback 14.4997 0.0157409 -0.493566
upperback -0.873194 0.328924 4.24222
thorax -9.1455 0.304969 4.79593
lowerneck -23.6803 0.176075 5.17067
upperneck 25.7724 -0.976363 -2.47696
head 12.4459 -0.252205 -1.98317
rclavicle 1.18153e-014 -1.43125e-014
rhumerus -48.5528 -3.66982 -75.7731
rradius 43.2393
rwrist -14.0488
rhand -18.0053 3.79512
rfingers 7.12502
rthumb 8.26519 -26.0232
lclavicle 1.18153e-014 -1.43125e-014
lhumerus -35.3405 -7.13729 84.6411
lradius 37.8135
lwrist 4.375
lhand -17.0514 -7.91414
lfingers 7.12502
lthumb 9.18578 21.8658
rfemur -13.132 -17.3277 20.948
rtibia 73.7528
rfoot -18.5689 -20.8456
rtoes -9.81721
lfemur -23.4593 6.49207 -14.8668
ltibia 60.3694
lfoot -21.8629 -3.28576
ltoes -17.8866
384
root 2.03767 16.9545 7.65803 0.0404383 7.26926 -9.47609
lowerback 14.5492 -0.047935 -0.478556
upperback -0.889007 0.25284 4.2901
thorax -9.18496 0.269997 4.85832
lowerneck -23.8533 0.0833596 5.09719
upperneck 25.6269 -1.11856 -2.38444
head 12.4167 -0.312497 -1.95868
rclavicle -1.02126e-014 -1.59028e-015
rhumerus -48.2651 -3.96805 -75.4528
rradius 43.7495
rwrist -14.0342
rhand -18.3192 3.78555
rfingers 7.12502
rthumb 7.96227 -26.0445
lclavicle -1.02126e-014 -1.59028e-015
lhumerus -34.4036 -7.44761 84.8168
lradius 37.9337
lwrist 4.16599
lhand -16.9725 -7.894
lfingers 7.12502
lthumb 9.26191 21.8826
rfemur -13.356 -17.7688 20.9182
rtibia 73.7299
rfoot -18.478 -20.8491
rtoes -9.76541
lfemur -23.5726 6.34 -14.4835
ltibia 60.6403
lfoot -21.5599 -4.42972
ltoes -18.4092
385
root 2.03622 16.963 7.7834 0.329129 7.71266 -9.54414
lowerback 14.5883 -0.10843 -0.484337
upperback -0.909228 0.175585 4.3196
thorax -9.22294 0.234983 4.91282
lowerneck -24.0042 -0.0113884 5.00703
upperneck 25.4681 -1.26108 -2.27266
head 12.3785 -0.3721 -1.92376
rclavicle -1.16786e-015 1.39149e-015
rhumerus -47.9369 -4.21544 -75.1616
rradius 44.1834
rwrist -13.868
rhand -18.6199 3.99508
rfingers 7.12502
rthumb 7.67204 -25.8458
lclavicle -1.16786e-015 1.39149e-015
lhumerus -33.4761 -7.68852 84.9393
lradius 38.1019
lwrist 3.91526
lhand -16.8347 -7.87665
lfingers 7.12502
lthumb 9.39487 21.894
rfemur -13.6473 -18.1674 20.8642
rtibia 73.7665
rfoot -18.3946 -20.8185
rtoes -9.67408
lfemur -23.7007 6.13721 -14.1518
ltibia 60.8816
lfoot -21.2986 -5.50441
ltoes -18.9397
386
root 2.03547 16.9676 7.90791 0.649804 8.12243 -9.56551
lowerback 14.6179 -0.157594 -0.519533
upperback -0.937585 0.106047 4.32509
thorax -9.2649 0.204618 4.9563
lowerneck -24.1249 -0.0937825 4.94685
upperneck 25.2689 -1.38681 -2.18765
head 12.3189 -0.425772 -1.90027
rclavicle 3.47749e-014 3.69739e-014
rhumerus -47.5803 -4.39437 -74.9126
rradius 44.5901
rwrist -13.6518
rhand -18.936 4.265
rfingers 7.12502
rthumb 7.36696 -25.5867
lclavicle 3.47749e-014 3.69739e-014
lhumerus -32.5604 -7.89729 85.0285
lradius 38.315
lwrist 3.71896
lhand -16.6981 -7.92191
lfingers 7.12502
lthumb 9.52662 21.8427
rfemur -14.0186 -18.5051 20.7749
rtibia 73.871
rfoot -18.3212 -20.7613
rtoes -9.60422
lfemur -23.8348 5.91101 -13.8938
ltibia 61.088
lfoot -21.0868 -6.47353
ltoes -19.4915
387
root 2.03652 16.9684 8.03187 0.998499 8.49189 -9.54254
lowerback 14.6365 -0.199056 -0.572231
upperback -0.973766 0.0412978 4.30578
thorax -9.30939 0.17684 4.98157
lowerneck -24.2362 -0.181152 4.8685
upperneck 25.0896 -1.51822 -2.08065
head 12.266 -0.48033 -1.86673
rclavicle -7.55382e-015 -4.8901e-014
rhumerus -47.2003 -4.48415 -74.7129
rradius 45.0086
rwrist -13.5096
rhand -19.2484 4.41273
rfingers 7.12502
rthumb 7.06535 -25.4493
lclavicle -7.55382e-015 -4.8901e-014
lhumerus -31.6704 -8.08954 85.0912
lradius 38.6016
lwrist 3.58923
lhand -16.5904 -7.95621
lfingers 7.12502
lthumb 9.63054 21.8037
rfemur -14.4613 -18.7846 20.6402
rtibia 74.0472
rfoot -18.2705 -20.6636
rtoes -9.53276
lfemur -23.9649 5.66172 -13.7212
ltibia 61.2588
lfoot -20.9196 -7.29069
ltoes -20.0504
388
root 2.03901 16.9662 8.15578 1.37423 8.80509 -9.45576
lowerback 14.6527 -0.226354 -0.674278
upperback -1.01868 -0.0158509 4.25885
thorax -9.36257 0.154674 5.00348
lowerneck -24.3406 -0.257947 4.80608
upperneck 24.9538 -1.63972 -1.97521
head 12.2296 -0.528289 -1.83558
rclavicle -2.26118e-014 5.96354e-015
rhumerus -46.8175 -4.48231 -74.5518
rradius 45.4579
rwrist -13.4778
rhand -19.5001 4.57735
rfingers 7.12502
rthumb 6.82244 -25.2927
lclavicle -2.26118e-014 5.96354e-015
lhumerus -30.8282 -8.28493 85.1385
lradius 38.982
lwrist 3.55623
lhand -16.5353 -7.99014
lfingers 7.12502
lthumb 9.68374 21.7673
rfemur -14.9801 -18.9945 20.4415
rtibia 74.3022
rfoot -18.2358 -20.5337
rtoes -9.45107
lfemur -24.0768 5.40463 -13.6593
ltibia 61.392
lfoot -20.7992 -7.91367
ltoes -20.6033
389
root 2.043 16.961 8.27921 1.78398 9.06906 -9.29392
lowerback 14.6612 -0.24308 -0.835435
upperback -1.06894 -0.0723163 4.18354
thorax -9.41712 0.135127 5.02805
lowerneck -24.4348 -0.311006 4.79903
upperneck 24.7702 -1.73278 -1.91939
head 12.1726 -0.566134 -1.82676
rclavicle 3.2551e-014 -3.598e-014
rhumerus -46.4155 -4.39444 -74.4248
rradius 45.9497
rwrist -13.5975
rhand -19.6945 4.67607
rfingers 7.12502
rthumb 6.63473 -25.2
lclavicle 3.2551e-014 -3.598e-014
lhumerus -30.0109 -8.50275 85.1729
lradius 39.4515
lwrist 3.61387
lhand -16.5449 -8.01436
lfingers 7.12502
lthumb 9.67444 21.7435
rfemur -15.5885 -19.1523 20.1636
rtibia 74.6449
rfoot -18.2165 -20.3721
rtoes -9.42838
lfemur -24.1749 5.11999 -13.7311
ltibia 61.487
lfoot -20.7321 -8.28599
ltoes -21.1591
390
root 2.04797 16.9534 8.4023 2.22146 9.28407 -9.05319
lowerback 14.6816 -0.251407 -1.07033
upperback -1.12403 -0.133395 4.08082
thorax -9.48312 0.116726 5.0665
lowerneck -24.5321 -0.336606 4.83917
upperneck 24.5876 -1.79711 -1.89084
head 12.1173 -0.590491 -1.8313
rclavicle 2.44505e-014 -5.96354e-015
rhumerus -46.0066 -4.22924 -74.3241
rradius 46.4963
rwrist -13.8291
rhand -19.7827 4.77008
rfingers 7.12502
rthumb 6.54961 -25.1086
lclavicle 2.44505e-014 -5.96354e-015
lhumerus -29.2163 -8.76668 85.1879
lradius 40.0137
lwrist 3.76343
lhand -16.6247 -8.00919
lfingers 7.12502
lthumb 9.59749 21.7522
rfemur -16.2896 -19.2655 19.8032
rtibia 75.0886
rfoot -18.2121 -20.1777
rtoes -9.4353
lfemur -24.2464 4.80747 -13.9426
ltibia 61.5394
lfoot -20.7265 -8.36097
ltoes -21.7591
